<svg width="1512" height="537" viewBox="0 0 1512 537" fill="none" xmlns="http://www.w3.org/2000/svg">
<circle cx="238.5" cy="355.5" r="49.5" fill="#005AAB"/>
<circle cx="100.5" cy="283.5" r="43.5" fill="#2E8FE7"/>
<path d="M1143 92.9261C1101.48 78.2689 997.121 57.7489 911.875 92.9261C805.317 136.898 779.804 228.096 625.22 175.982C470.636 123.868 262.5 64.5029 187.5 168.003C93.2887 298.013 128.478 303.06 169.5 315.003" stroke="#D1D7FC" stroke-width="3.9" stroke-dasharray="43.34 43.34"/>
<circle cx="1392" cy="225.902" r="99" fill="#1B8D86"/>
<path d="M1444.73 191.231C1441.02 187.478 1434.97 187.457 1431.23 191.183L1373.16 249.04L1352.77 228.717C1349.03 224.99 1342.98 225.012 1339.27 228.764C1335.56 232.514 1335.58 238.571 1339.32 242.294L1373.16 276.02L1444.68 204.761C1448.42 201.037 1448.44 194.981 1444.73 191.231Z" fill="white"/>
<path d="M108 336.003C190.747 336.003 237.156 470.709 366.963 439.29C529.221 400.017 555.184 426.43 637.393 439.29C750 456.905 870 296.405 927 281.405" stroke="#FFB235" stroke-width="3" stroke-dasharray="35.46 35.46"/>
<path d="M345 408.003C420 402.003 535.992 267.988 634.5 333.004C733.008 398.019 820.201 489.94 973.874 456.447C1096.81 429.652 1193.16 367.707 1228.62 342.095" stroke="#0070D6" stroke-width="3.9" stroke-dasharray="43.34 43.34"/>
<path d="M1431.45 283.341L1260.09 385.876L1298.6 386.239" fill="#2E8FE7"/>
<path d="M1182.12 381.529L1221.42 415.798L1431.45 283.344L1182.12 381.529Z" fill="#0070D6"/>
<path d="M1116.48 412.347L1167.63 339.705L1431.45 283.343L1116.48 412.347Z" fill="#81BEF5"/>
<path d="M84.7333 390.469C-70.9101 398.349 56.3712 553.992 170.641 510.649" stroke="#3983FA" stroke-width="3.94033" stroke-dasharray="43.34 43.34"/>
<path d="M1091.94 219.03C1090.84 218.801 901.241 264.208 901.241 264.208L903.466 316.162C903.466 316.162 1093.04 219.259 1091.94 219.03Z" fill="#FFB235"/>
<path d="M903.386 316.138L917.317 277.11L941.933 296.483L903.386 316.138Z" fill="#FFC85D"/>
<path d="M1091.94 219.027L917.317 277.109L997.761 341.599" fill="#FFD98E"/>
<path d="M1091.94 219.028L901.241 264.206L851.682 231.752L1091.94 219.028Z" fill="#FFD177"/>
<path d="M634.982 455.387C631.171 460.874 627.006 466.181 622.443 471.251C615.106 479.401 606.757 486.935 597.247 493.573C588.641 499.584 578.503 505.273 566.571 509.969C563.961 510.996 561.058 510.997 558.447 509.971C546.509 505.279 536.365 499.59 527.754 493.573C518.368 487.016 510.106 479.594 502.836 471.562C498.038 466.262 493.674 460.694 489.701 454.933C453.738 402.785 450.066 318.196 450.001 286.752C449.99 281.427 453.616 276.867 458.756 275.481L559.379 248.346C561.425 247.794 563.581 247.794 565.628 248.346L666.243 275.48C671.384 276.867 675.01 281.427 674.999 286.752C674.932 318.272 671.238 403.181 634.982 455.387Z" fill="#F8F9FF"/>
<path d="M642.716 464.01C638.498 470.12 633.888 476.03 628.839 481.677C620.719 490.753 611.479 499.143 600.954 506.535C591.333 513.298 579.98 519.695 566.597 524.956C563.971 525.988 561.052 525.989 558.425 524.958C545.036 519.702 533.676 513.305 524.048 506.535C513.661 499.233 504.517 490.968 496.473 482.023C491.163 476.12 486.333 469.92 481.937 463.504C441.747 404.862 437.997 309.379 438 275.199C438 269.881 441.616 265.308 446.749 263.915L559.362 233.355C561.42 232.797 563.59 232.797 565.648 233.355L678.253 263.915C683.386 265.308 687.002 269.882 687.002 275.201C687.004 309.464 683.231 405.304 642.716 464.01Z" fill="#FFC85E"/>
<path d="M619.506 434.168L600.248 414.883L585.436 408.755C590.368 401.731 593.01 393.352 593.001 384.765C593.001 361.683 574.249 342.905 551.201 342.905C528.152 342.905 509.401 361.683 509.401 384.765C509.401 407.847 528.152 426.625 551.201 426.625C559.85 426.635 568.286 423.943 575.335 418.924L581.439 433.718L600.696 453.004C601.931 454.241 603.397 455.222 605.01 455.891C606.624 456.561 608.354 456.905 610.1 456.905C611.847 456.905 613.576 456.561 615.19 455.892C616.804 455.222 618.27 454.241 619.505 453.004C620.74 451.768 621.72 450.299 622.388 448.683C623.057 447.068 623.401 445.336 623.401 443.586C623.401 441.837 623.057 440.105 622.389 438.489C621.72 436.873 620.741 435.405 619.506 434.168ZM517.001 384.765C517.001 365.881 532.343 350.516 551.201 350.516C570.058 350.516 585.401 365.881 585.401 384.765C585.401 403.65 570.058 419.014 551.201 419.014C532.343 419.014 517.001 403.65 517.001 384.765ZM614.131 447.622C613.061 448.691 611.612 449.291 610.101 449.291C608.589 449.291 607.14 448.691 606.07 447.622L587.884 429.41L582.209 415.655L595.946 421.338L614.132 439.55C615.199 440.621 615.798 442.073 615.798 443.586C615.798 445.099 615.199 446.551 614.131 447.622Z" fill="white"/>
<path d="M484.559 355.864L486.492 343.141H524.699L526.632 355.864H484.559ZM505.368 320.508L493.428 347.644L493.769 351.248L483.308 373.767H465L505.368 290.332L534.236 351.923L526.136 352.599L521.478 359.355L517.08 351.923L517.308 347.87L505.368 320.508Z" fill="white"/>
<path d="M538.416 309.474V294.949H597.546V309.474H576.055V356.82L559.794 347.87V309.474H538.416Z" fill="white"/>
<path d="M613.722 347.307C615.39 350.234 617.209 352.786 619.18 354.963C621.227 357.14 623.463 358.829 625.889 360.03C628.315 361.231 630.931 361.832 633.735 361.832C636.995 361.832 639.649 361.006 641.695 359.355C643.742 357.703 644.766 355.451 644.766 352.599C644.766 350.122 644.121 348.132 642.833 346.631C641.62 345.13 639.762 343.816 637.261 342.69C634.835 341.489 631.84 340.213 628.277 338.862C626.382 338.186 624.184 337.285 621.682 336.159C619.256 334.958 616.944 333.457 614.745 331.656C612.547 329.779 610.728 327.527 609.287 324.9C607.847 322.197 607.127 318.969 607.127 315.216C607.127 310.712 608.264 306.846 610.538 303.619C612.888 300.316 616.034 297.801 619.976 296.075C623.994 294.273 628.467 293.372 633.394 293.372C638.474 293.372 642.833 294.235 646.471 295.962C650.186 297.613 653.256 299.753 655.682 302.38C658.184 304.932 660.117 307.597 661.481 310.374L648.746 317.356C647.684 315.479 646.396 313.79 644.879 312.289C643.439 310.712 641.771 309.474 639.876 308.573C637.981 307.597 635.82 307.109 633.394 307.109C630.21 307.109 627.822 307.86 626.23 309.361C624.638 310.787 623.842 312.476 623.842 314.428C623.842 316.38 624.487 318.106 625.776 319.608C627.064 321.034 629.035 322.422 631.689 323.774C634.342 325.05 637.678 326.363 641.695 327.715C644.273 328.615 646.737 329.741 649.087 331.093C651.513 332.444 653.673 334.095 655.568 336.047C657.539 337.924 659.056 340.175 660.117 342.803C661.254 345.355 661.823 348.32 661.823 351.698C661.823 355.526 661.064 358.942 659.548 361.944C658.032 364.947 655.947 367.499 653.294 369.601C650.641 371.628 647.646 373.167 644.311 374.218C641.051 375.344 637.602 375.907 633.963 375.907C629.111 375.907 624.563 375.006 620.317 373.204C616.148 371.328 612.509 368.813 609.401 365.66C606.293 362.507 603.867 359.092 602.123 355.414L613.722 347.307Z" fill="white"/>
<path d="M168.43 335.881C168.416 335.877 168.4 335.882 168.391 335.893C166.306 338.371 162.894 339.237 159.806 338.225L148.744 334.677C143.413 332.966 137.659 334.112 132.81 336.898C127.96 339.685 124.08 344.075 122.888 349.534L120.414 360.86C119.74 364.041 117.266 366.555 114.06 367.102C109.671 367.843 105.275 368.223 100.861 368.29L97.5747 368.277C93.073 368.192 88.6132 367.759 84.213 367.008C80.9892 366.473 78.5399 363.913 77.8467 360.749L75.3638 349.437C74.1659 343.98 70.3158 339.588 65.4703 336.789C60.6089 333.982 54.8173 332.798 49.4664 334.488L38.4608 337.963C35.3439 338.944 31.927 338.074 29.8566 335.54C26.7358 331.747 23.8791 327.641 21.3345 323.233C18.79 318.826 16.6628 314.3 14.9401 309.704C13.7816 306.645 14.7416 303.26 17.1566 301.063L25.701 293.302C29.8456 289.537 31.723 283.953 31.7271 278.356C31.7312 272.765 29.8465 267.234 25.7035 263.467L17.1502 255.69C14.7548 253.504 13.7949 250.089 14.9176 247.055C16.4749 242.882 18.3374 238.816 20.5227 234.889L22.1599 232.045C24.4329 228.27 26.9679 224.668 29.8128 221.252C31.8956 218.76 35.3178 217.887 38.4131 218.901L49.4418 222.439C54.7952 224.157 60.5703 223.009 65.44 220.211C70.2897 217.424 74.17 213.034 75.3622 207.575L77.8358 196.249C78.5095 193.068 80.984 190.554 84.19 190.007C88.5791 189.266 92.9743 188.886 97.3882 188.819L100.675 188.833C105.177 188.917 109.636 189.35 114.037 190.101C117.261 190.637 119.71 193.196 120.403 196.36L122.886 207.672C124.084 213.129 127.934 217.521 132.779 220.32C137.641 223.127 143.432 224.311 148.783 222.621L159.789 219.146C162.906 218.165 166.323 219.035 168.393 221.569C171.544 225.345 174.401 229.451 176.946 233.858C179.49 238.266 181.617 242.792 183.34 247.388C184.499 250.446 183.538 253.831 181.124 256.029L172.588 263.782C168.438 267.551 166.558 273.143 166.553 278.747C166.548 284.333 168.424 289.859 172.555 293.631L181.117 301.45C183.512 303.636 184.472 307.051 183.35 310.084C181.792 314.258 179.93 318.324 177.745 322.251L176.107 325.094C173.839 328.862 171.309 332.458 168.47 335.868C168.461 335.88 168.445 335.885 168.43 335.881ZM74.8174 292.542C78.5408 298.991 84.6735 303.704 91.8666 305.644C99.0596 307.584 106.724 306.592 113.173 302.886C119.622 299.18 124.328 293.065 126.255 285.884C128.182 278.704 127.173 271.047 123.45 264.597C119.726 258.148 113.594 253.436 106.401 251.496C99.2077 249.556 91.5437 250.548 85.0946 254.253C78.6455 257.959 73.9397 264.075 72.0124 271.255C70.085 278.436 71.094 286.093 74.8174 292.542Z" fill="#67B5FB"/>
<path d="M354.845 377.286C354.826 377.291 354.811 377.307 354.808 377.327C354.058 381.575 350.7 384.852 346.465 385.746L331.34 389.035C324.051 390.621 318.181 395.782 314.448 402.232C310.715 408.682 309.17 416.334 311.438 423.424L316.145 438.137C317.49 442.253 316.315 446.805 312.983 449.575C308.416 453.358 303.601 456.73 298.556 459.753L294.757 461.931C289.509 464.837 284.077 467.314 278.502 469.385C274.427 470.919 269.894 469.602 266.984 466.416L256.571 455.028C251.548 449.535 244.177 447.039 236.722 447.046C229.242 447.053 221.773 449.553 216.73 455.072L206.358 466.425C203.419 469.636 198.898 470.913 194.819 469.372C188.689 467.081 182.654 464.252 176.779 460.868C170.903 457.484 165.43 453.684 160.376 449.534C156.999 446.78 155.847 442.236 157.165 438.09L161.839 423.438C164.106 416.331 162.544 408.638 158.814 402.182C155.087 395.732 149.223 390.611 141.931 389.032L126.878 385.772C122.657 384.85 119.27 381.552 118.541 377.305C117.551 371.452 116.986 365.521 116.885 359.534L116.875 355.163C116.977 349.292 117.496 343.447 118.497 337.609C119.236 333.345 122.599 330.054 126.846 329.158L141.925 325.878C149.245 324.286 155.138 319.108 158.886 312.632C162.619 306.182 164.164 298.53 161.896 291.439L157.189 276.727C155.844 272.61 157.019 268.059 160.351 265.288C164.918 261.505 169.733 258.133 174.778 255.11L178.577 252.933C183.825 250.026 189.257 247.549 194.832 245.478C198.907 243.945 203.44 245.262 206.351 248.447L216.763 259.835C221.786 265.328 229.157 267.824 236.612 267.817C244.092 267.811 251.561 265.311 256.604 259.791L266.976 248.439C269.915 245.227 274.436 243.95 278.515 245.491C284.668 247.742 290.703 250.571 296.579 253.955C302.454 257.339 307.928 261.138 312.981 265.289C316.358 268.043 317.511 272.587 316.192 276.733L311.523 291.37C309.253 298.486 310.817 306.189 314.551 312.655C318.273 319.099 324.125 324.22 331.406 325.813L346.497 329.115C350.718 330.037 354.104 333.335 354.834 337.582C355.823 343.434 356.389 349.366 356.49 355.353L356.499 359.724C356.398 365.584 355.88 371.418 354.883 377.245C354.88 377.265 354.865 377.281 354.845 377.286ZM217.971 389.783C226.569 394.735 236.786 396.077 246.375 393.514C255.965 390.951 264.141 384.692 269.104 376.115C274.068 367.538 275.413 357.345 272.844 347.778C270.274 338.212 264.001 330.055 255.403 325.103C246.806 320.151 236.589 318.809 226.999 321.373C217.41 323.936 209.234 330.195 204.27 338.772C199.306 347.349 197.961 357.542 200.531 367.108C203.1 376.675 209.374 384.831 217.971 389.783Z" fill="#0070D6"/>
<path d="M1102.51 116.655L1137.88 68.4572L1364.53 170.444L1146.5 96.9745L1102.51 116.655Z" fill="#D1D7FC"/>
<path d="M1139.71 153.38L1138.85 84.7187L1364.53 170.44L1139.71 153.38Z" fill="white"/>
<path d="M1137.88 68.4544L1134.56 8.10975L1364.53 170.441L1137.88 68.4544Z" fill="#EFF2FA"/>
<path d="M1102.51 116.654L1138.84 84.7213L1139.37 127.078L1102.51 116.654Z" fill="#D1D7FC"/>
</svg>
